<svg width="18" height="18" viewBox="0 0 18 18" fill="none" xmlns="http://www.w3.org/2000/svg">
<path d="M9 18C13.757 18 17.6133 13.9706 17.6133 9C17.6133 4.02944 13.757 0 9 0C4.24302 0 0.386719 4.02944 0.386719 9C0.386719 13.9706 4.24302 18 9 18Z" fill="#E88102"/>
<path d="M9 17.0508C13.7084 17.0508 17.5254 13.2338 17.5254 8.52539C17.5254 3.81695 13.7084 0 9 0C4.29156 0 0.474609 3.81695 0.474609 8.52539C0.474609 13.2338 4.29156 17.0508 9 17.0508Z" fill="#FDD835"/>
<path opacity="0.5" d="M12.4029 0.707031L1.18105 11.9254C0.804883 11.0641 0.569336 10.1289 0.499023 9.14805L9.62207 0.0214844C10.6029 0.0953125 11.5381 0.330859 12.4029 0.707031Z" fill="white"/>
<path opacity="0.5" d="M16.4285 4.3418L4.81641 15.9539C4.09219 15.5461 3.43828 15.0363 2.86523 14.4422L14.9203 2.39062C15.5109 2.96016 16.0207 3.61758 16.4285 4.3418Z" fill="white"/>
<path opacity="0.5" d="M14.5724 2.06992L2.54893 14.0934C2.3626 13.8754 2.1833 13.6469 2.01807 13.4113L13.8903 1.53906C14.1259 1.7043 14.3544 1.88359 14.5724 2.06992Z" fill="white"/>
<path opacity="0.5" d="M17.2583 6.39805L6.87314 16.7832C6.56025 16.7023 6.25439 16.6039 5.95557 16.4914L16.9665 5.48047C17.079 5.7793 17.1774 6.08516 17.2583 6.39805Z" fill="white"/>
<path opacity="0.5" d="M17.5254 8.52539C17.5254 8.58516 17.5254 8.64141 17.5219 8.70117C17.4305 4.07461 13.6512 0.351562 9 0.351562C4.34883 0.351562 0.569531 4.07461 0.478125 8.70117C0.478125 8.64141 0.474609 8.58516 0.474609 8.52539C0.474609 3.81797 4.29258 0 9 0C13.7074 0 17.5254 3.81797 17.5254 8.52539Z" fill="white"/>
<path opacity="0.5" d="M15.9258 8.89453C15.9258 12.5824 12.934 15.5742 9.24609 15.5742C7.17539 15.5742 5.32266 14.6285 4.0957 13.1484C5.31563 14.4668 7.05938 15.293 9 15.293C12.6879 15.293 15.6797 12.3012 15.6797 8.61328C15.6797 6.99609 15.1066 5.51602 14.1504 4.35938C15.2508 5.55117 15.9258 7.14375 15.9258 8.89453Z" fill="white"/>
<path d="M9 15.293C12.6891 15.293 15.6797 12.3024 15.6797 8.61328C15.6797 4.92419 12.6891 1.93359 9 1.93359C5.31091 1.93359 2.32031 4.92419 2.32031 8.61328C2.32031 12.3024 5.31091 15.293 9 15.293Z" fill="#F39E09"/>
<path d="M14.0625 4.25391C12.8918 3.24492 11.3695 2.63672 9.70312 2.63672C6.01523 2.63672 3.02344 5.62852 3.02344 9.31641C3.02344 10.9828 3.63164 12.5051 4.64062 13.6758C3.22031 12.4488 2.32031 10.6383 2.32031 8.61328C2.32031 4.92539 5.31211 1.93359 9 1.93359C11.0215 1.93359 12.8355 2.83359 14.0625 4.25391Z" fill="#E88102"/>
<path d="M8.58174 6.91172C8.46221 7.04883 8.39893 7.23867 8.39893 7.48125C8.39893 7.72383 8.46924 7.92422 8.60986 8.06836C8.75049 8.2125 8.97549 8.34961 9.28486 8.4832C9.59424 8.61328 9.88604 8.75039 10.1603 8.89102C10.4345 9.03164 10.67 9.19336 10.8704 9.37266C11.0708 9.55195 11.2255 9.76289 11.338 10.002C11.3802 10.0934 11.5067 10.2656 11.5067 10.2656C11.5067 10.2656 11.5067 10.8492 11.5067 10.8668C11.5067 11.4363 11.3274 11.9004 10.9653 12.259C10.6032 12.6176 10.1146 12.8285 9.49229 12.8883V13.8867H8.69775V12.8777C7.97354 12.8004 7.41807 12.5543 7.02783 12.1324C6.64111 11.7105 6.44775 11.1586 6.44775 10.4695V9.94219L8.12822 10.4695C8.12822 10.8492 8.2126 11.1375 8.38135 11.3344C8.5501 11.5312 8.78916 11.6297 9.09854 11.6297C9.32354 11.6297 9.50283 11.5629 9.63291 11.4258C9.76299 11.2887 9.82627 11.1059 9.82627 10.8703C9.82627 10.6066 9.76299 10.4027 9.63291 10.2516C9.50283 10.1004 9.27432 9.95977 8.95088 9.82617C8.62393 9.69258 8.3251 9.55898 8.04736 9.42188C7.76963 9.28477 7.53408 9.12656 7.33369 8.94727C7.1333 8.76797 6.98213 8.56055 6.87314 8.325C6.76768 8.08945 6.71494 7.80469 6.71494 7.46719V6.9082C6.71494 6.9082 7.02783 6.32109 7.28447 6.07852C7.66416 5.71289 8.17041 5.50195 8.79971 5.44219V4.39453H9.59424V5.4668C10.2024 5.5582 10.6806 5.80781 11.0286 6.21914C11.2677 6.50039 11.5489 7.25625 11.5489 7.25625V7.78359H9.86143C9.86143 7.43906 9.79463 7.17188 9.66104 6.98555C9.52744 6.79922 9.3376 6.70781 9.0915 6.70781C8.87354 6.7043 8.70479 6.77461 8.58174 6.91172Z" fill="#DB6704"/>
<path d="M9.82637 10.3465C9.82637 10.0828 9.76309 9.87891 9.63301 9.72773C9.50293 9.57656 9.27441 9.43594 8.95098 9.30234C8.62402 9.16875 8.32519 9.03516 8.04746 8.89805C7.76973 8.76094 7.53418 8.60273 7.33379 8.42344C7.1334 8.24414 6.98223 8.03672 6.87324 7.80117C6.76777 7.56562 6.71504 7.27734 6.71504 6.94336C6.71504 6.38086 6.90488 5.9168 7.28457 5.55469C7.66426 5.19258 8.17051 4.97812 8.7998 4.91836V3.86719H9.59434V4.93945C10.2025 5.03086 10.6807 5.28047 11.0287 5.6918C11.3768 6.10312 11.549 6.62344 11.549 7.25625H9.86152C9.86152 6.91172 9.79473 6.64453 9.66113 6.4582C9.52754 6.27187 9.3377 6.18047 9.0916 6.18047C8.87363 6.18047 8.70137 6.25078 8.58184 6.38789C8.4623 6.525 8.39902 6.71484 8.39902 6.95742C8.39902 7.2 8.46934 7.40039 8.60996 7.54453C8.75059 7.68867 8.97559 7.82578 9.28145 7.95937C9.59082 8.08945 9.88262 8.22656 10.1568 8.36719C10.4311 8.50781 10.6666 8.66953 10.867 8.84883C11.0674 9.02812 11.2221 9.23906 11.3346 9.47813C11.4471 9.71719 11.5033 10.0055 11.5033 10.3395C11.5033 10.909 11.324 11.373 10.9619 11.7316C10.5998 12.0902 10.1111 12.3012 9.48887 12.3609V13.3594H8.69434V12.3504C7.97012 12.273 7.41465 12.027 7.02441 11.6051C6.6377 11.1832 6.44434 10.6312 6.44434 9.94219H8.1248C8.1248 10.3219 8.20918 10.6102 8.37793 10.807C8.54668 11.0039 8.78574 11.1023 9.09512 11.1023C9.32012 11.1023 9.49941 11.0355 9.62949 10.8984C9.75957 10.7613 9.82637 10.582 9.82637 10.3465Z" fill="#FDD835"/>
<path opacity="0.5" d="M7.28447 5.55469C7.48838 5.35781 7.73096 5.20664 8.00869 5.09766L6.81689 6.29297C6.9083 6.01172 7.06299 5.76914 7.28447 5.55469Z" fill="white"/>
<path opacity="0.5" d="M9.23926 3.86719L8.7998 4.30664V3.86719H9.23926Z" fill="white"/>
<path opacity="0.5" d="M11.3238 9.4457L8.45156 12.318C7.84687 12.216 7.37227 11.977 7.03125 11.6078C6.80977 11.3652 6.65156 11.0805 6.55664 10.7535L7.36523 9.94492H8.13164C8.13164 10.3246 8.21602 10.6129 8.38477 10.8098C8.55352 11.0066 8.79258 11.1051 9.10195 11.1051C9.32695 11.1051 9.50625 11.0383 9.63633 10.9012C9.76641 10.7641 9.82969 10.5812 9.82969 10.3457C9.82969 10.082 9.76641 9.87813 9.63633 9.72695C9.50625 9.57578 9.27773 9.43516 8.9543 9.30156C8.72227 9.20664 8.5043 9.11172 8.29688 9.01328L9.3375 7.97266C9.6293 8.09922 9.90352 8.22578 10.1637 8.35938C10.4379 8.5 10.6734 8.66172 10.8738 8.84102C11.0637 9.0168 11.2148 9.21719 11.3238 9.4457Z" fill="white"/>
<path opacity="0.5" d="M11.5488 7.25195H10.0547L11.2676 6.03906C11.4539 6.38359 11.5488 6.78789 11.5488 7.25195Z" fill="white"/>
<path opacity="0.5" d="M6.45117 9.94141H6.70078L6.46172 10.1805C6.45469 10.1031 6.45117 10.0223 6.45117 9.94141Z" fill="white"/>
<path opacity="0.5" d="M8.60977 7.54063C8.68008 7.61445 8.77148 7.68477 8.8875 7.75508L7.84687 8.7957C7.65352 8.68672 7.48125 8.56367 7.33359 8.42656C7.27383 8.37383 7.22109 8.31758 7.17188 8.26133L8.40586 7.02734C8.41641 7.23828 8.48672 7.41055 8.60977 7.54063Z" fill="white"/>
<path opacity="0.5" d="M10.9935 5.65039L9.81924 6.82461C9.7876 6.68047 9.73486 6.55742 9.66455 6.45898C9.55908 6.31133 9.41846 6.22344 9.24268 6.1918L10.2938 5.14062C10.5646 5.26367 10.7966 5.43242 10.9935 5.65039Z" fill="white"/>
<path opacity="0.5" d="M9.08447 13.359L9.49229 12.9512V13.359H9.08447Z" fill="white"/>
<path opacity="0.5" d="M11.3978 11.0469C11.3099 11.307 11.1657 11.532 10.9688 11.7289C10.772 11.9258 10.5364 12.077 10.2622 12.1824L11.3978 11.0469Z" fill="white"/>
<path opacity="0.25" d="M14.5723 4.92539C10.248 6.44414 6.77461 9.78047 5.07305 14.0168C4.92539 13.9078 4.78125 13.7953 4.64062 13.6723C3.63164 12.5016 3.02344 10.9793 3.02344 9.31641C3.02344 5.62852 6.01523 2.63672 9.70312 2.63672C11.3695 2.63672 12.8918 3.24492 14.059 4.25391C14.2453 4.46836 14.4141 4.69336 14.5723 4.92539Z" fill="white"/>
</svg>
