<svg width="18" height="18" viewBox="0 0 18 18" fill="none" xmlns="http://www.w3.org/2000/svg">
<g clip-path="url(#clip0_1214_27556)">
<path d="M12.825 0.254379C20.715 -0.930621 15.66 5.78938 13.215 7.67938C14.895 8.96938 16.62 10.7844 17.355 12.8394C18.72 16.6044 15.36 17.1594 12.825 16.2144C10.05 15.2394 7.60502 13.1544 5.98503 10.7094C5.53503 10.7094 5.04003 10.6344 4.57503 10.4994C5.49003 13.0794 5.88003 15.7194 5.62503 17.8794C5.62503 13.5294 3.55503 9.20937 0.570027 5.60937C-0.479973 4.34937 0.600027 3.41938 1.54503 4.63437C2.19003 5.51937 2.77503 6.43438 3.30003 7.37938C4.33503 3.83938 9.37502 0.749379 12.825 0.254379ZM11.7 6.65937C13.245 5.71437 17.94 0.674377 13.56 1.12438C11.04 1.40938 7.98002 3.73438 6.72002 5.23437C8.47502 5.02437 10.26 5.78937 11.7 6.65937ZM7.35002 10.5744C8.76002 12.1494 10.68 13.6794 12.75 14.2344C13.95 14.5494 15.27 14.4144 14.79 12.7044C14.295 11.1294 13.035 9.74937 11.805 8.69937C11.46 8.93937 11.07 9.19437 10.68 9.35937C9.63002 9.94437 8.50502 10.3644 7.35002 10.5744Z" fill="#EBA12A"/>
<path d="M6.67491 6.34552C7.87491 6.24052 9.16491 6.87052 10.1549 7.50052C9.20991 7.95052 8.15991 8.23552 7.06491 8.29552C5.45991 8.31052 5.12991 6.49552 6.67491 6.34552Z" fill="white"/>
</g>
<defs>
<clipPath id="clip0_1214_27556">
<rect width="18" height="18" fill="white"/>
</clipPath>
</defs>
</svg>
