<svg width="18" height="24" viewBox="0 0 18 24" fill="none" xmlns="http://www.w3.org/2000/svg">
<path d="M5.123 22.3399L5.49133 19.8976L4.67111 19.8776H0.754883L3.47629 1.85721C3.49301 1.74342 3.587 1.65943 3.69736 1.66016H10.3009C12.4931 1.66016 14.0058 2.13642 14.7957 3.07694C15.1661 3.51793 15.4018 3.97892 15.516 4.48608C15.6358 5.01833 15.6379 5.65419 15.5209 6.43001L15.5125 6.48673V6.98371L15.883 7.20293C16.1657 7.35236 16.4198 7.55486 16.6329 7.79989C16.9497 8.1769 17.1544 8.65643 17.2411 9.22467C17.3305 9.80927 17.3009 10.5047 17.1544 11.2918C16.9855 12.1975 16.7122 12.9864 16.3436 13.6317C16.018 14.2101 15.5804 14.7107 15.0589 15.1019C14.5691 15.4651 13.9866 15.7407 13.3287 15.9174C12.6909 16.0908 11.9636 16.1784 11.166 16.1784H10.6522C10.2845 16.1784 9.92768 16.3166 9.64743 16.5645C9.36753 16.815 9.18197 17.1607 9.12383 17.5406L9.08518 17.7606L8.43486 22.0651L8.40526 22.2232C8.3976 22.2734 8.38403 22.2981 8.36453 22.3152C8.34538 22.3316 8.32171 22.3407 8.29699 22.341H5.12404L5.123 22.3399Z" fill="#253B80"/>
<path d="M16.2201 6.54297C16.2003 6.67458 16.178 6.80909 16.1526 6.94724C15.2819 11.6164 12.3025 13.2291 8.49733 13.2291H6.55993C6.09447 13.2291 5.70246 13.5821 5.63005 14.0613L4.6382 20.6308L4.35725 22.4929C4.31443 22.7754 4.49894 23.0404 4.76945 23.0851C4.79486 23.0895 4.82062 23.0913 4.84673 23.0913H8.28288C8.68985 23.0913 9.03555 22.7827 9.09961 22.3635L9.13338 22.1813L9.78023 17.8939L9.82166 17.6587C9.88502 17.2381 10.2314 16.9294 10.6384 16.9294H11.1522C14.4815 16.9294 17.0877 15.5181 17.8494 11.4335C18.1676 9.72736 18.0029 8.30258 17.1608 7.30062C16.8938 6.99051 16.5752 6.7342 16.2201 6.54333V6.54297Z" fill="#179BD7"/>
<path d="M15.3174 6.16462C15.0392 6.08063 14.7565 6.01519 14.4704 5.9683C13.9053 5.87777 13.334 5.83414 12.7624 5.83814H7.58658C7.17961 5.83814 6.83321 6.14753 6.77054 6.56744L5.66938 13.8498L5.6377 14.0621C5.70872 13.583 6.10351 13.2296 6.56758 13.23H8.50498C12.3102 13.23 15.2892 11.6161 16.1602 6.94808C16.1863 6.80993 16.2083 6.67541 16.2278 6.5438C15.998 6.41801 15.7585 6.31258 15.5116 6.2286C15.4469 6.20606 15.3821 6.18498 15.3167 6.16462H15.3174Z" fill="#222D65"/>
<path d="M6.76831 6.56804C6.83028 6.14777 7.17703 5.83802 7.58435 5.83947H12.7602C13.3732 5.83947 13.9456 5.88128 14.4681 5.96963C14.8215 6.0278 15.1703 6.11432 15.5108 6.22921C15.7677 6.31828 16.0066 6.42335 16.2269 6.54441C16.486 4.81897 16.2248 3.64432 15.3315 2.58056C14.3459 1.40955 12.5683 0.908203 10.2939 0.908203H3.69041C3.22564 0.908203 2.82945 1.26122 2.75774 1.74111L0.00708207 19.9473C-0.0420057 20.2705 0.169315 20.574 0.478812 20.6253C0.508056 20.63 0.5373 20.6326 0.566892 20.6326H4.64361L5.66715 13.8508L6.76831 6.5684V6.56804Z" fill="#253B80"/>
</svg>
