<svg width="18" height="18" viewBox="0 0 18 18" fill="none" xmlns="http://www.w3.org/2000/svg">
<path d="M15.3241 0H0.897196C0.41271 0 0 0.412706 0 0.915136V2.54803C0 3.05046 0.41271 3.46318 0.897196 3.46318H15.3241C15.8265 3.46318 16.2213 3.05046 16.2393 2.54803V0.933081C16.2393 0.412707 15.8265 0 15.3241 0ZM15.3241 9.06168H0.897196C0.663925 9.06168 0.430654 9.1514 0.269159 9.33084C0.0897196 9.51028 0 9.7256 0 9.97682V11.6097C0 12.1121 0.41271 12.5249 0.897196 12.5249H15.3241C15.8265 12.5249 16.2213 12.1301 16.2393 11.6097V9.97682C16.2213 9.45644 15.8265 9.06168 15.3241 9.06168ZM9.02579 13.5835H0.897196C0.663925 13.5835 0.430654 13.6733 0.269159 13.8527C0.107664 14.0321 0 14.2475 0 14.4987V16.1316C0 16.634 0.41271 17.0467 0.897196 17.0467H9.00785C9.51028 17.0467 9.90505 16.634 9.90505 16.1495V14.5166C9.92299 13.9783 9.52822 13.5835 9.02579 13.5835ZM16.2393 4.52187H0.897196C0.663925 4.52187 0.430654 4.61159 0.269159 4.79102C0.107664 4.97046 0 5.18579 0 5.43701V7.06991C0 7.57234 0.41271 7.98505 0.897196 7.98505H16.2213C16.7237 7.98505 17.1185 7.57234 17.1185 7.06991V5.43701C17.1364 4.95252 16.7237 4.53981 16.2393 4.52187Z" fill="#2DBDEF"/>
</svg>
