<svg width="18" height="18" viewBox="0 0 18 18" fill="none" xmlns="http://www.w3.org/2000/svg">
<g clip-path="url(#clip0_1214_27504)">
<path d="M8.3295 13.944C6.66825 13.944 4.52175 13.2592 2.8365 12.345V16.8608C4.70175 17.6625 6.59475 18 8.3265 18C12.4995 18 15.375 16.2075 15.375 12.6015C15.375 6.61875 7.70325 7.69125 7.70325 5.43375L7.7025 5.433C7.7025 4.64925 8.35725 4.34775 9.40575 4.34775C10.9328 4.34775 12.8723 4.815 14.4 5.63775V0.91725C12.735 0.25275 11.0745 0 9.4095 0C5.3385 0 2.625 2.1225 2.625 5.673C2.625 11.223 10.254 10.3237 10.254 12.717C10.2548 13.6455 9.44925 13.944 8.3295 13.944Z" fill="#646FDE"/>
<path d="M2.8365 12.3453V16.8611C4.70175 17.6628 6.59475 18.0003 8.3265 18.0003C8.55525 18.0003 8.7795 17.9951 9 17.9846V13.9001C8.79375 13.9308 8.56875 13.9443 8.3295 13.9443C6.66825 13.9443 4.52175 13.2596 2.8365 12.3453ZM9 0.0078125C5.157 0.145812 2.625 2.24356 2.625 5.67331C2.625 9.79606 6.83475 10.3601 9 11.3583V6.70606C8.22675 6.38581 7.70325 6.02356 7.70325 5.43331C7.70325 4.75681 8.19075 4.43956 9 4.36531V0.0078125Z" fill="#5761C1"/>
</g>
<defs>
<clipPath id="clip0_1214_27504">
<rect width="18" height="18" fill="white"/>
</clipPath>
</defs>
</svg>
