<svg width="17" height="15" viewBox="0 0 17 15" fill="none" xmlns="http://www.w3.org/2000/svg">
<path d="M15.0012 2.95844H2.20125C2.03151 2.95844 1.86873 2.89101 1.7487 2.77099C1.62868 2.65096 1.56125 2.48818 1.56125 2.31844C1.56125 2.1487 1.62868 1.98591 1.7487 1.86589C1.86873 1.74587 2.03151 1.67844 2.20125 1.67844H13.0812C13.251 1.67844 13.4138 1.61101 13.5338 1.49099C13.6538 1.37096 13.7212 1.20818 13.7212 1.03844C13.7212 0.868699 13.6538 0.705913 13.5338 0.585889C13.4138 0.465866 13.251 0.398438 13.0812 0.398438H2.20125C1.69203 0.398438 1.20367 0.600723 0.843605 0.960793C0.483535 1.32086 0.28125 1.80922 0.28125 2.31844V12.5584C0.28125 13.0677 0.483535 13.556 0.843605 13.9161C1.20367 14.2762 1.69203 14.4784 2.20125 14.4784H15.0012C15.3407 14.4784 15.6663 14.3436 15.9063 14.1035C16.1464 13.8635 16.2812 13.5379 16.2812 13.1984V4.23844C16.2812 3.89896 16.1464 3.57339 15.9063 3.33334C15.6663 3.09329 15.3407 2.95844 15.0012 2.95844ZM12.1213 9.35844C11.9314 9.35844 11.7458 9.30213 11.5879 9.19665C11.43 9.09116 11.307 8.94123 11.2343 8.76581C11.1617 8.5904 11.1427 8.39737 11.1797 8.21115C11.2167 8.02493 11.3082 7.85387 11.4424 7.71961C11.5767 7.58536 11.7477 7.49393 11.934 7.45688C12.1202 7.41984 12.3132 7.43885 12.4886 7.51151C12.664 7.58417 12.814 7.70722 12.9195 7.86509C13.0249 8.02296 13.0812 8.20857 13.0812 8.39844C13.0812 8.65304 12.9801 8.89722 12.8001 9.07726C12.62 9.25729 12.3759 9.35844 12.1213 9.35844Z" fill="#A45D5D"/>
</svg>
