<svg width="50" height="50" viewBox="0 0 50 50" fill="none" xmlns="http://www.w3.org/2000/svg">
<rect width="50" height="50" fill="white"/>
<g clip-path="url(#clip0_41_76)">
<path d="M42.1399 32.22C41.9099 32.57 41.9499 32.98 41.8799 33.37C41.6199 34.73 41.0899 35.97 40.3999 37.15C39.7899 38.18 38.9999 39.08 38.0999 39.85C36.5899 41.14 34.8699 42.04 32.9099 42.46C31.7799 42.7 30.6499 42.78 29.5199 42.7C28.2699 42.62 27.0599 42.31 25.9099 41.8C24.4699 41.16 23.1699 40.31 22.0899 39.15C21.9599 39.01 21.8199 39.01 21.6599 39.01C19.0199 39.01 16.3799 39.01 13.7399 39.01C12.6399 39.01 11.7999 38.48 11.2199 37.57C10.3799 36.26 10.6099 34.65 11.6799 33.59C11.8199 33.45 11.8499 33.38 11.6899 33.22C10.3799 31.88 10.3799 29.99 11.6899 28.64C11.8199 28.51 11.8499 28.44 11.6999 28.29C10.9199 27.53 10.5999 26.58 10.7399 25.51C10.8299 24.84 11.1399 24.24 11.6299 23.76C11.7999 23.59 11.8499 23.5 11.6499 23.29C10.3499 21.96 10.4099 19.95 11.7699 18.69C12.3299 18.16 13.0399 17.93 13.7999 17.9C14.3999 17.88 15.0099 17.9 15.6499 17.9C14.9299 16.71 14.9199 15.54 15.6499 14.33C15.5199 14.33 15.4099 14.33 15.2999 14.33C13.5499 14.33 11.7999 14.33 10.0499 14.33C8.94991 14.33 8.09991 13.8 7.51991 12.9C6.65991 11.53 6.89991 9.91 8.00991 8.84C8.56991 8.3 9.26991 8.02 10.0199 8.02C15.6299 8 21.2399 8 26.8499 8.02C28.4199 8.02 29.6399 8.87 30.0399 10.52C30.2099 11.22 30.0999 11.93 29.7699 12.59C29.7199 12.7 29.6199 12.79 29.6299 12.94C31.3199 12.94 33.0099 12.94 34.6999 12.94C35.0899 12.94 35.4799 12.99 35.8599 13.08C37.1099 13.36 38.0499 14.51 38.1699 15.78C38.3299 17.5 37.2399 18.71 35.9099 19.13C35.6799 19.2 35.4399 19.25 35.1899 19.25C34.5699 19.25 33.9599 19.25 33.3199 19.25C33.4399 19.61 33.5899 19.83 33.9899 19.96C35.4099 20.42 36.7099 21.11 37.8699 22.08C39.8399 23.72 41.1299 25.79 41.7799 28.25C41.9199 28.78 41.9699 29.34 42.0699 29.89C42.0699 29.92 42.1099 29.93 42.1299 29.96V32.22H42.1399ZM17.4599 37.63H20.8399C20.1299 36.54 19.5899 35.42 19.2399 34.22C19.1999 34.08 19.1399 34.07 19.0299 34.07C18.5099 34.07 17.9799 34.07 17.4599 34.08C16.3199 34.08 15.1799 34.1 14.0399 34.06C12.9399 34.03 11.9799 34.83 12.1099 36.05C12.1999 36.9 12.8199 37.57 13.6599 37.61C14.9199 37.66 16.1899 37.62 17.4599 37.61V37.63ZM17.4599 24.21C16.3199 24.21 15.1799 24.23 14.0399 24.19C12.9399 24.16 11.9799 24.96 12.1099 26.18C12.1999 27.03 12.8199 27.7 13.6599 27.74C14.9199 27.79 16.1899 27.75 17.4599 27.74C17.9699 27.74 18.4899 27.73 18.9999 27.76C19.2299 27.77 19.3099 27.67 19.3699 27.49C19.6299 26.66 20.0099 25.88 20.4299 25.13C20.6099 24.82 20.8599 24.55 20.9799 24.2H17.4499L17.4599 24.21ZM17.4599 32.69C17.8199 32.69 18.1899 32.69 18.5499 32.7C18.9099 32.7 18.9299 32.64 18.8899 32.29C18.7699 31.3 18.7699 30.31 18.9399 29.33C18.9699 29.16 18.9399 29.14 18.7899 29.14C18.3499 29.14 17.8999 29.14 17.4599 29.15C16.3199 29.15 15.1799 29.17 14.0399 29.13C12.9399 29.1 11.9799 29.9 12.1099 31.12C12.1999 31.97 12.8199 32.64 13.6599 32.68C14.9199 32.73 16.1899 32.69 17.4599 32.68V32.69ZM17.4599 19.27C16.3199 19.27 15.1799 19.29 14.0399 19.25C12.9399 19.22 11.9799 20.02 12.1099 21.24C12.1999 22.09 12.8199 22.76 13.6599 22.8C14.9199 22.85 16.1899 22.81 17.4599 22.8C18.9899 22.8 20.5199 22.8 22.0499 22.81C22.1599 22.81 22.2399 22.79 22.3199 22.71C22.5199 22.49 22.7499 22.31 22.9799 22.12C23.7599 21.45 24.6199 20.92 25.5399 20.48C26.4399 20.05 27.3899 19.78 28.3699 19.58C28.8399 19.49 29.3099 19.48 29.7799 19.42C30.1299 19.37 30.4799 19.36 30.8299 19.42C30.9699 19.45 31.0999 19.47 31.2299 19.37C30.9499 19.3 30.6699 19.25 30.3899 19.25C27.3799 19.25 24.3799 19.25 21.3699 19.25C20.0699 19.25 18.7699 19.25 17.4599 19.26V19.27ZM23.9799 17.88C24.0399 17.88 24.0899 17.89 24.1499 17.89C27.7799 17.89 31.4199 17.89 35.0499 17.89C35.3099 17.89 35.5399 17.83 35.7699 17.74C36.8099 17.3 37.1299 16.09 36.5999 15.19C36.2299 14.56 35.6399 14.33 34.9499 14.33C33.2699 14.32 31.5899 14.33 29.9099 14.33C27.9299 14.33 25.9599 14.33 23.9799 14.34C22.1299 14.34 20.2799 14.35 18.4299 14.32C17.3199 14.3 16.3699 15.09 16.4999 16.32C16.5899 17.17 17.2099 17.86 18.0499 17.88C20.0199 17.93 21.9999 17.89 23.9799 17.88ZM14.7799 12.93C14.7799 12.93 14.8699 12.93 14.9199 12.93C18.9399 12.93 22.9599 12.93 26.9799 12.93C27.2299 12.93 27.4499 12.87 27.6599 12.78C28.6999 12.36 29.0399 11.13 28.4899 10.22C28.1199 9.6 27.5199 9.37 26.8399 9.37C24.5899 9.37 22.3399 9.37 20.0899 9.37C18.3199 9.37 16.5499 9.37 14.7799 9.38C13.2999 9.38 11.8099 9.4 10.3299 9.36C9.21991 9.34 8.26991 10.13 8.39991 11.35C8.48991 12.2 9.10991 12.88 9.94991 12.91C11.5599 12.96 13.1699 12.92 14.7799 12.91V12.93ZM30.6899 41.32C31.8099 41.37 32.8599 41.09 33.8999 40.72C36.0299 39.97 37.7099 38.64 38.9799 36.79C40.2499 34.94 40.7999 32.89 40.7099 30.64C40.6599 29.47 40.4399 28.36 40.0199 27.27C39.3099 25.44 38.1499 23.97 36.5899 22.8C35.3199 21.84 33.8799 21.23 32.3099 20.94C31.8199 20.85 31.3299 20.87 30.8499 20.77C30.4199 20.74 29.9899 20.78 29.5599 20.81C28.9699 20.85 28.3899 20.95 27.8199 21.1C26.0799 21.56 24.5599 22.41 23.2799 23.67C22.2699 24.66 21.4999 25.81 20.9499 27.12C20.5499 28.07 20.2899 29.07 20.2099 30.09C20.1599 30.81 20.1599 31.54 20.2499 32.27C20.3699 33.31 20.6499 34.31 21.0799 35.25C21.8799 37.02 23.0799 38.47 24.6999 39.56C26.5099 40.77 28.4899 41.42 30.6899 41.31V41.32Z" fill="#1A4FA2"/>
<path d="M30.69 41.33C28.49 41.43 26.52 40.78 24.7 39.58C23.07 38.5 21.88 37.04 21.08 35.27C20.65 34.32 20.37 33.33 20.25 32.29C20.17 31.56 20.16 30.83 20.21 30.11C20.29 29.09 20.54 28.09 20.95 27.14C21.5 25.84 22.27 24.68 23.28 23.69C24.56 22.43 26.08 21.57 27.82 21.12C28.39 20.97 28.97 20.87 29.56 20.83C29.99 20.8 30.42 20.76 30.84 20.79C30.31 21.06 29.77 21.29 29.26 21.59C28.32 22.15 27.49 22.83 26.75 23.66C28.05 23.07 29.4 22.8 30.81 22.83C30.78 23.09 30.95 23.26 31.1 23.44C29.94 23.98 28.9 24.68 28.07 25.67C26.4 27.66 25.73 29.94 26.18 32.49C26.59 34.82 27.83 36.65 29.81 37.97C30.56 38.47 31.4 38.79 32.25 39.07C31.56 39.3 30.85 39.29 30.14 39.28C30.08 39.15 30.07 39 29.98 38.89C29.6 38.44 29.06 38.52 28.7 39.09C28.3 39 27.87 38.98 27.55 38.68C27.66 38.33 27.59 38.11 27.23 37.91C26.2 37.34 25.28 36.65 24.54 35.71C23.64 34.56 23.1 33.26 22.95 31.82C22.8 30.31 23.09 28.86 23.78 27.5C23.96 27.15 23.84 26.77 23.52 26.6C23.15 26.41 22.8 26.52 22.59 26.89C22.02 27.91 21.68 29.02 21.58 30.18C21.47 31.53 21.61 32.86 22.11 34.15C22.94 36.31 24.36 37.92 26.4 38.99C26.68 39.14 26.96 39.19 27.26 39.06C27.3 39.08 27.35 39.08 27.38 39.11C28.32 39.97 29.37 40.65 30.55 41.15C30.62 41.18 30.7 41.22 30.69 41.32V41.33Z" fill="#E6EDFF"/>
<path d="M27.55 38.67C27.87 38.97 28.3 38.99 28.7 39.08C28.7 39.66 29.01 40.01 29.51 39.96C29.9 39.91 30.06 39.62 30.15 39.27C30.86 39.28 31.57 39.29 32.26 39.06C32.28 39.06 32.31 39.06 32.33 39.06C34.12 38.63 35.61 37.72 36.81 36.31C37.03 36.05 37.16 35.72 37.46 35.53C37.95 35.6 38.2 35.5 38.38 35.17C39.11 33.83 39.37 32.36 39.39 30.86C39.39 30.28 39.32 29.69 39.18 29.13C38.52 26.4 36.97 24.36 34.45 23.08C33.95 22.83 33.69 22.9 33.38 23.37C33.02 23.17 32.62 23.08 32.22 23C32.22 22.94 32.21 22.89 32.2 22.83C32.18 22.38 31.95 22.11 31.55 22.13C31.14 22.16 30.85 22.24 30.81 22.81C29.4 22.78 28.05 23.05 26.75 23.64C27.49 22.81 28.31 22.12 29.26 21.57C29.77 21.27 30.32 21.04 30.84 20.77C31.32 20.87 31.82 20.85 32.3 20.94C33.88 21.23 35.31 21.83 36.58 22.8C38.13 23.97 39.3 25.44 40.01 27.27C40.43 28.36 40.65 29.47 40.7 30.64C40.8 32.89 40.24 34.94 38.97 36.79C37.7 38.64 36.02 39.97 33.89 40.72C32.85 41.09 31.79 41.36 30.68 41.32C30.68 41.22 30.61 41.18 30.54 41.15C29.37 40.65 28.31 39.97 27.37 39.11C27.34 39.08 27.29 39.08 27.25 39.06C27.39 38.96 27.5 38.84 27.54 38.66L27.55 38.67Z" fill="#C7D3FE"/>
<path d="M14.7801 9.39C16.5501 9.39 18.3201 9.39 20.0901 9.38C22.3401 9.38 24.5901 9.38 26.8401 9.38C27.5301 9.38 28.1201 9.61 28.4901 10.23C29.0301 11.14 28.6901 12.37 27.6601 12.79C27.4501 12.88 27.2201 12.94 26.9801 12.94C22.9601 12.94 18.9401 12.94 14.9201 12.94C14.8701 12.94 14.8301 12.94 14.7801 12.94C14.7001 12.83 14.6101 12.73 14.5401 12.61C14.1901 12.03 13.9101 11.45 14.0901 10.73C14.2201 10.22 14.4701 9.79 14.7901 9.39H14.7801Z" fill="#C7D3FE"/>
<path d="M23.98 14.3299C25.96 14.3299 27.93 14.3299 29.91 14.3199C31.59 14.3199 33.27 14.3199 34.95 14.3199C35.64 14.3199 36.24 14.5499 36.6 15.1799C37.12 16.0799 36.8 17.2899 35.77 17.7299C35.55 17.8199 35.31 17.8799 35.05 17.8799C31.42 17.8799 27.78 17.8799 24.15 17.8799C24.09 17.8799 24.04 17.8799 23.98 17.8699C22.98 16.6999 22.98 15.4999 23.98 14.3299Z" fill="#C7D3FE"/>
<path d="M17.46 19.26C18.76 19.26 20.06 19.26 21.37 19.25C24.38 19.25 27.38 19.25 30.39 19.25C30.67 19.25 30.95 19.31 31.23 19.37C31.1 19.47 30.97 19.44 30.83 19.42C30.48 19.36 30.14 19.37 29.78 19.42C29.31 19.48 28.84 19.49 28.37 19.58C27.39 19.77 26.44 20.05 25.54 20.48C24.62 20.92 23.76 21.45 22.98 22.12C22.76 22.31 22.53 22.5 22.32 22.71C22.24 22.79 22.16 22.81 22.05 22.81C20.52 22.81 18.99 22.81 17.46 22.8C17.42 22.75 17.37 22.7 17.33 22.64C16.91 22.1 16.64 21.51 16.71 20.82C16.77 20.23 17.05 19.7 17.45 19.25L17.46 19.26Z" fill="#C7D3FE"/>
<path d="M23.98 14.33C22.98 15.5 22.98 16.7 23.98 17.87C22 17.87 20.03 17.91 18.05 17.87C17.2 17.85 16.59 17.16 16.5 16.31C16.37 15.09 17.32 14.3 18.43 14.31C20.28 14.34 22.13 14.33 23.98 14.33Z" fill="#E6EDFF"/>
<path d="M14.7801 9.38998C14.4601 9.78998 14.2101 10.22 14.0801 10.73C13.9001 11.45 14.1801 12.03 14.5301 12.61C14.6001 12.73 14.6901 12.83 14.7701 12.94C13.1601 12.94 11.5501 12.98 9.94012 12.94C9.10012 12.91 8.48012 12.23 8.39012 11.38C8.26012 10.16 9.21012 9.35998 10.3201 9.38998C11.8001 9.41998 13.2901 9.39998 14.7701 9.40998L14.7801 9.38998Z" fill="#E6EDFF"/>
<path d="M17.4601 19.26C17.0501 19.71 16.7801 20.23 16.7201 20.83C16.6501 21.51 16.9201 22.11 17.3401 22.65C17.3801 22.7 17.4201 22.76 17.4701 22.81C16.2001 22.81 14.9401 22.86 13.6701 22.81C12.8201 22.77 12.2101 22.1 12.1201 21.25C11.9901 20.03 12.9401 19.22 14.0501 19.26C15.1901 19.29 16.3301 19.27 17.4701 19.28L17.4601 19.26Z" fill="#E6EDFF"/>
<path d="M17.4601 32.69C16.1901 32.69 14.9201 32.74 13.6601 32.69C12.8101 32.65 12.2001 31.98 12.1101 31.13C11.9801 29.91 12.9301 29.1 14.0401 29.14C15.1801 29.17 16.3201 29.15 17.4601 29.16C17.4201 29.21 17.3701 29.26 17.3301 29.32C16.9201 29.86 16.6401 30.45 16.7101 31.14C16.7701 31.73 17.0501 32.26 17.4601 32.71V32.69Z" fill="#E6EDFF"/>
<path d="M17.4601 27.75C16.1901 27.75 14.9201 27.8 13.6601 27.75C12.8101 27.71 12.2001 27.04 12.1101 26.19C11.9801 24.97 12.9301 24.16 14.0401 24.2C15.1801 24.23 16.3201 24.21 17.4601 24.22C17.4201 24.27 17.3701 24.32 17.3301 24.38C16.9001 24.92 16.6401 25.53 16.7101 26.21C16.7801 26.8 17.0401 27.32 17.4501 27.76L17.4601 27.75Z" fill="#E6EDFF"/>
<path d="M17.4601 37.62C16.1901 37.62 14.9201 37.67 13.6601 37.62C12.8101 37.58 12.2001 36.91 12.1101 36.06C11.9801 34.84 12.9301 34.03 14.0401 34.07C15.1801 34.1 16.3201 34.08 17.4601 34.09C17.4201 34.14 17.3701 34.19 17.3301 34.25C16.9001 34.79 16.6401 35.4 16.7101 36.08C16.7801 36.67 17.0401 37.19 17.4501 37.63L17.4601 37.62Z" fill="#E6EDFF"/>
<path d="M17.46 27.75C17.05 27.31 16.78 26.79 16.72 26.2C16.64 25.51 16.9 24.9 17.34 24.37C17.38 24.32 17.43 24.27 17.47 24.21C18.64 24.21 19.8 24.21 21 24.21C20.88 24.56 20.62 24.83 20.45 25.14C20.02 25.9 19.64 26.67 19.39 27.5C19.33 27.68 19.26 27.79 19.02 27.77C18.51 27.74 17.99 27.75 17.48 27.75H17.46Z" fill="#C7D3FE"/>
<path d="M17.46 37.6199C17.05 37.1799 16.78 36.6599 16.72 36.0699C16.64 35.3799 16.9 34.7699 17.34 34.2399C17.38 34.1899 17.43 34.1399 17.47 34.0799C18 34.0799 18.52 34.0799 19.04 34.0699C19.15 34.0699 19.21 34.0699 19.25 34.2199C19.59 35.4199 20.13 36.5399 20.85 37.6299H17.47L17.46 37.6199Z" fill="#C7D3FE"/>
<path d="M17.46 32.69C17.05 32.24 16.78 31.72 16.71 31.12C16.64 30.44 16.91 29.84 17.33 29.3C17.37 29.25 17.42 29.19 17.46 29.14C17.9 29.14 18.35 29.14 18.79 29.13C18.93 29.13 18.97 29.15 18.94 29.32C18.77 30.3 18.77 31.29 18.89 32.28C18.93 32.63 18.9 32.69 18.55 32.69C18.19 32.69 17.82 32.69 17.46 32.68V32.69Z" fill="#C7D3FE"/>
<path d="M37.45 35.55C37.15 35.74 37.02 36.07 36.8 36.33C35.6 37.73 34.11 38.65 32.32 39.08C32.3 39.08 32.27 39.08 32.25 39.08C31.4 38.8 30.56 38.48 29.81 37.98C27.83 36.66 26.6 34.83 26.18 32.5C25.73 29.95 26.4 27.67 28.07 25.68C28.9 24.69 29.94 23.99 31.1 23.45C31.57 23.63 32.03 23.46 32.21 23.03C32.61 23.11 33.01 23.19 33.37 23.4C33.28 23.88 33.48 24.18 33.91 24.39C34.92 24.88 35.76 25.59 36.44 26.5C37.53 27.95 38.04 29.56 37.97 31.38C37.93 32.49 37.66 33.51 37.19 34.5C36.95 34.99 37.02 35.23 37.45 35.57V35.55ZM27.6 33.16C27.57 34.1 28.46 35.23 29.47 35.51C29.72 35.58 29.83 35.69 29.8 35.97C29.78 36.25 30.1 36.58 30.37 36.61C30.61 36.64 31.06 36.41 31.06 36.19C31.06 35.66 31.4 35.48 31.81 35.36C31.83 35.36 31.85 35.33 31.87 35.32C33.16 34.64 33.54 33.42 33.2 32.26C32.9 31.25 32.17 30.66 31.12 30.43C30.78 30.35 30.43 30.4 30.09 30.31C29.16 30.07 28.56 29.12 29.24 28.23C29.56 27.81 30.04 27.77 30.54 27.76C31.23 27.74 31.92 28.25 31.97 29.06C32 29.42 32.23 29.67 32.55 29.69C32.96 29.71 33.2 29.53 33.27 29.12C33.31 28.87 33.29 28.62 33.23 28.38C32.97 27.44 32.34 26.86 31.44 26.54C31.24 26.47 31.15 26.41 31.13 26.17C31.1 25.66 30.9 25.4 30.35 25.43C29.94 25.46 29.77 25.63 29.78 26.16C29.78 26.41 29.65 26.46 29.47 26.52C28.87 26.7 28.39 27.04 28.03 27.56C27.32 28.57 27.47 29.96 28.29 30.8C28.94 31.46 29.71 31.73 30.6 31.75C31.17 31.77 31.78 32.17 31.9 32.64C32.06 33.26 31.78 33.84 31.16 34.15C30.17 34.65 29.17 34.15 28.94 33.07C28.82 32.48 28.72 32.41 28.37 32.37C27.8 32.3 27.58 32.54 27.58 33.17L27.6 33.16Z" fill="#C7D3FE"/>
<path d="M27.5499 38.67C27.5199 38.85 27.3999 38.97 27.2599 39.07C26.9599 39.2 26.6799 39.15 26.3999 39C24.3599 37.92 22.9399 36.31 22.1099 34.16C21.6099 32.87 21.4699 31.54 21.5799 30.19C21.6699 29.04 22.0099 27.93 22.5899 26.9C22.7999 26.52 23.1599 26.41 23.5199 26.61C23.8299 26.78 23.9499 27.16 23.7799 27.51C23.0899 28.87 22.7899 30.32 22.9499 31.83C23.0999 33.27 23.6399 34.57 24.5399 35.72C25.2699 36.66 26.1899 37.35 27.2299 37.92C27.5899 38.12 27.6599 38.33 27.5499 38.69V38.67Z" fill="#1A4FA2"/>
<path d="M32.2101 23.01C32.0301 23.44 31.5701 23.61 31.1001 23.43C30.9501 23.25 30.7801 23.08 30.8101 22.82C30.8501 22.25 31.1401 22.16 31.5501 22.14C31.9501 22.12 32.1801 22.39 32.2001 22.84C32.2001 22.9 32.2101 22.95 32.2201 23.01H32.2101Z" fill="#1A4FA2"/>
<path d="M30.15 39.28C30.06 39.63 29.9 39.92 29.51 39.97C29.01 40.03 28.7 39.68 28.7 39.09C29.07 38.52 29.6099 38.44 29.9799 38.89C30.0799 39.01 30.0799 39.16 30.1399 39.28H30.15Z" fill="#1A4FA2"/>
<path d="M37.4501 35.55C37.0101 35.21 36.9501 34.97 37.1901 34.48C37.6701 33.49 37.9301 32.47 37.9701 31.36C38.0401 29.54 37.5301 27.93 36.4401 26.48C35.7601 25.58 34.9301 24.87 33.9101 24.37C33.4801 24.16 33.2801 23.86 33.3701 23.38C33.6801 22.91 33.9401 22.84 34.4401 23.09C36.9701 24.36 38.5101 26.41 39.1701 29.14C39.3101 29.7 39.3801 30.3 39.3801 30.87C39.3601 32.37 39.1001 33.84 38.3701 35.18C38.1901 35.51 37.9401 35.61 37.4501 35.54V35.55Z" fill="#1A4FA2"/>
<path d="M27.5999 33.16C27.5999 32.53 27.8199 32.3 28.3899 32.36C28.7399 32.4 28.8399 32.47 28.9599 33.06C29.1799 34.14 30.1799 34.63 31.1799 34.14C31.7999 33.83 32.0799 33.25 31.9199 32.63C31.7999 32.16 31.1899 31.75 30.6199 31.74C29.7299 31.72 28.9499 31.45 28.3099 30.79C27.4899 29.95 27.3399 28.56 28.0499 27.55C28.4099 27.03 28.8999 26.7 29.4899 26.51C29.6699 26.46 29.7999 26.4 29.7999 26.15C29.7899 25.62 29.9599 25.45 30.3699 25.42C30.9099 25.38 31.1199 25.65 31.1499 26.16C31.1599 26.4 31.2599 26.46 31.4599 26.53C32.3599 26.85 32.9899 27.43 33.2499 28.37C33.3199 28.61 33.3399 28.87 33.2899 29.11C33.2199 29.52 32.9799 29.7 32.5699 29.68C32.2499 29.66 32.0199 29.42 31.9899 29.05C31.9299 28.23 31.2399 27.73 30.5599 27.75C30.0599 27.76 29.5799 27.8 29.2599 28.22C28.5699 29.11 29.1799 30.06 30.1099 30.3C30.4499 30.39 30.7999 30.34 31.1399 30.42C32.1799 30.65 32.9199 31.24 33.2199 32.25C33.5599 33.42 33.1799 34.63 31.8899 35.31C31.8699 35.32 31.8499 35.34 31.8299 35.35C31.4099 35.47 31.0799 35.65 31.0799 36.18C31.0799 36.4 30.6199 36.63 30.3899 36.6C30.1199 36.57 29.7999 36.24 29.8199 35.96C29.8399 35.68 29.7299 35.57 29.4899 35.5C28.4799 35.22 27.5899 34.09 27.6199 33.15L27.5999 33.16Z" fill="#1A4FA2"/>
</g>
<defs>
<clipPath id="clip0_41_76">
<rect width="35.14" height="34.72" fill="white" transform="translate(7 8)"/>
</clipPath>
</defs>
</svg>
